<?xml version="1.0" encoding="UTF-8" standalone="no"?>
<svg
   version="1.0"
   width="831.67944"
   height="832.04749"
   viewBox="0 0 831.67944 832.04749"
   preserveAspectRatio="xMidYMid"
   id="svg7"
   xmlns="http://www.w3.org/2000/svg"
   xmlns:svg="http://www.w3.org/2000/svg">
  <defs
     id="defs7" />
  <g
     fill="#cccccc"
     id="g2"
     transform="translate(-209.23546,-209.28859)">
    <path
       d="m 464.9,902.5 c -16.3,-2.6 -32.8,-8 -45.9,-15.1 -21,-11.5 -44.3,-36.7 -56,-60.9 -10.8,-22.1 -14.9,-39.4 -15.7,-65.5 -0.8,-28.3 2.6,-45.7 13.2,-67.7 7.7,-16.1 16.2,-28 29.5,-41.4 21.5,-21.6 44.2,-33.6 72.4,-38.5 12.8,-2.3 44.5,-1.4 56.7,1.4 18.8,4.4 38.1,12.9 50.1,22 6.5,4.9 6.5,4.9 7.2,-6.2 0.3,-6.1 0.6,-16.6 0.6,-23.3 C 577,595 577,595 461.8,594.8 346.5,594.5 346.5,594.5 346.5,471 c 0,-123.5 0,-123.5 49,-123.5 49,0 49,0 49.3,72.3 0.2,72.2 0.2,72.2 43.6,72.2 43.4,0 43.4,0 48.9,-6 3.1,-3.3 23.2,-24.6 44.7,-47.5 37.9,-40.2 39.2,-41.5 42.8,-41.5 3.6,0.1 5.2,1.7 48.2,47.5 44.5,47.4 44.5,47.4 88.3,47.5 43.7,0 43.7,0 43.7,-72.5 0,-72.5 0,-72.5 49,-72.5 49,0 49,0 48.8,123.8 -0.3,123.7 -0.3,123.7 -115,124 C 673,595 673,595 673,618.5 c 0,23.5 0,23.5 7.8,18.1 15.6,-10.9 37.1,-19.8 56.2,-23.2 14.2,-2.6 40.3,-2.4 53.7,0.5 26.8,5.6 49.2,18.1 69.6,38.8 12.3,12.5 19.8,22.8 26.6,36.8 11.1,22.5 14,34.9 14.8,62.5 0.8,28.2 -2.1,45.9 -11.1,66.9 -15.7,36.5 -43.4,62.9 -81.6,77.6 -15.3,6 -21.9,6.8 -50.3,6.3 -23.1,-0.5 -26,-0.7 -34.9,-3.1 -25.7,-6.8 -43.8,-19.1 -79.6,-54.2 -19.7,-19.3 -19.7,-19.3 -39.7,0.4 -36.6,35.9 -47.4,43.5 -73.6,51.9 -18.4,5.9 -45.7,7.8 -66,4.7 z M 500.3,799 c 8,-3 25.5,-18 39.7,-34 6.1,-6.8 6.1,-6.8 -0.7,-14.6 -10,-11.4 -30.9,-30 -37.3,-33.2 -4.6,-2.3 -6.8,-2.7 -13.6,-2.7 -7.3,0 -8.8,0.4 -15.8,3.9 -13.8,6.8 -23.9,19.6 -26.8,34 -2.2,11.1 2.5,23.6 12.8,34.6 13,13.8 26.6,17.7 41.7,12 z m 269,1.5 c 8.1,-2.1 13.2,-5 19.3,-10.7 6.7,-6.3 11.1,-13.1 13.5,-20.9 2.5,-8 2.4,-15 -0.5,-23 -8.7,-24.7 -35,-38.3 -55.1,-28.4 -7.2,3.5 -42.5,37.1 -42.5,40.4 0,1.9 13.6,16.5 25,26.8 17.3,15.6 26.8,19.3 40.3,15.8 z"
       id="path1" />
  </g>
  <g
     fill="#999999"
     id="g4"
     transform="translate(-209.23546,-209.28859)">
    <path
       d="m 607,1040.9 c -82.6,-3.2 -164.4,-32.5 -231.5,-83 C 341.8,932.6 311,901 285.9,865.9 261,831.1 239.6,787.4 227.1,745.9 192.9,632.1 208.2,511.2 269.6,409.6 298.5,361.9 339.6,317.9 386,285 c 83.8,-59.4 189.3,-85.5 292.4,-72.4 124.1,15.8 236.1,88.2 301.3,194.9 31.2,51 50.2,104.6 58.4,164.9 2.6,19.2 3.7,66.8 2,86.7 -10.8,123.8 -73.8,234.2 -174.6,305.9 -63.4,45 -144.9,73.2 -218.5,75.6 -8.5,0.2 -17.1,0.6 -19,0.7 -1.9,0.1 -11.4,0 -21,-0.4 z M 507.8,899.4 c 17.3,-2.5 36.7,-9.5 49.8,-17.9 9.4,-6 22.4,-17.5 45.4,-40.1 21.5,-21.2 21.5,-21.2 42.6,-0.5 37.3,36.6 55.2,48.9 81.2,55.8 8.6,2.3 12.2,2.6 31.8,3 25.1,0.6 32.4,-0.4 47.4,-6.2 32.2,-12.4 55.9,-32.1 72.6,-60.1 15.2,-25.7 21.2,-50 20.1,-81.4 -0.9,-24.8 -4.2,-37.9 -14.8,-59.5 -15.4,-31.5 -45.1,-58.4 -77.7,-70.4 -26.6,-9.8 -57.7,-10 -85.8,-0.6 -16.5,5.5 -32.8,14.3 -44.3,23.9 -3.3,2.8 -4.6,3.4 -5.2,2.4 -0.5,-0.7 -0.9,-13.6 -0.9,-28.5 0,-27.3 0,-27.3 114.8,-27.5 114.7,-0.3 114.7,-0.3 115,-121 C 900,350 900,350 854,350 c -46,0 -46,0 -46,72.5 0,72.5 0,72.5 -46.7,72.5 -46.8,-0.1 -46.8,-0.1 -91.3,-47.5 -24.5,-26.1 -44.8,-47.4 -45.2,-47.5 -0.5,0 -61.9,64.6 -84.5,89 -5.5,6 -5.5,6 -51.9,6 -46.4,0 -46.4,0 -46.6,-72.3 -0.3,-72.2 -0.3,-72.2 -46.3,-72.2 -46,0 -46,0 -46,120.5 0,120.5 0,120.5 115.4,120.8 115.4,0.2 115.4,0.2 114.8,28.4 -0.4,15.4 -0.9,28.3 -1.2,28.6 -0.2,0.3 -1.9,-0.7 -3.7,-2.2 -18.3,-15 -35.4,-23.3 -58.7,-28.7 -12.3,-2.9 -38.4,-3.7 -50.7,-1.5 -28.3,4.9 -50.9,16.9 -72.4,38.5 -13.3,13.4 -21.8,25.3 -29.5,41.4 -10.3,21.3 -14,39.9 -13.2,64.7 0.8,23.1 5.5,41.6 15.7,62.5 8.8,18.2 26.4,39.8 42.3,51.8 26.4,20.1 64.4,29.3 99.5,24.1 z"
       id="path2" />
    <path
       d="m 477.6,803.9 c -15.1,-3.7 -30.9,-20.2 -34.5,-36 -4.8,-20.6 6.3,-42.6 26.5,-52.5 7.6,-3.8 8,-3.9 18.8,-3.9 10.1,0 11.6,0.3 16.6,2.7 10.3,5.1 45,39 45,44 0,3.4 -23.3,27.6 -37.3,38.7 -8.2,6.4 -24.5,9.7 -35.1,7 z"
       id="path3" />
    <path
       d="m 751.7,803.9 c -7.9,-1.9 -14.4,-6 -26.2,-16.7 -10.1,-9.2 -16,-15.4 -25.3,-26.4 -2.2,-2.6 -0.8,-5.1 8.5,-15 13.5,-14.4 29.3,-28.6 35.1,-31.5 10.5,-5.1 29.1,-4.1 39.4,2.3 23.3,14.4 30.9,44.4 16.9,66.3 -4,6.1 -12.5,14.2 -17.9,17 -9,4.6 -21.2,6.2 -30.5,4 z"
       id="path4" />
  </g>
</svg>
